<svg xmlns="http://www.w3.org/2000/svg" width="136" height="91" viewBox="0 0 136 91" fill="none"><g clip-path="url(#clip0_160_3063)"><path d="M25.2604 90.3064H21.9529V83.7098H24.846C26.5798 83.7098 27.4279 84.2659 27.4279 85.3117C27.4279 86.2163 26.7776 86.6971 26.382 86.7724C26.8722 86.8478 27.7857 87.328 27.7857 88.525C27.7862 89.6095 27.0323 90.3064 25.2604 90.3064ZM24.6953 85.0862H23.7625V86.2168H24.6859C25.2891 86.2168 25.6376 86.0379 25.6376 85.6324C25.6376 85.2646 25.3456 85.0862 24.6953 85.0862ZM24.7707 87.4896H23.7625V88.931H24.8559C25.6286 88.931 25.9959 88.6861 25.9959 88.2148C25.9954 87.6968 25.5905 87.4896 24.7707 87.4896Z" fill="#1266A5"></path><path d="M34.9027 87.9134H34.1489V90.3064H32.3397V83.7098H35.4871C37.4003 83.7098 38.2672 84.4072 38.2672 85.8113C38.2672 86.876 37.7676 87.5263 36.703 87.79L38.2767 90.3059H36.3451L34.9027 87.9134ZM35.3741 85.1145H34.1489V86.5087H35.3647C35.9867 86.5087 36.4393 86.3868 36.4393 85.8118C36.4393 85.2369 35.9867 85.1145 35.3741 85.1145Z" fill="#1266A5"></path><path d="M46.8263 89.2041H44.5646L44.2345 90.3069H42.2648L44.6959 83.7103H46.6939L49.1251 90.3069H47.1564L46.8263 89.2041ZM44.9795 87.8004H46.4025L45.6863 85.4069L44.9795 87.8004Z" fill="#1266A5"></path><path d="M56.1107 85.2369V90.3069H54.3016V85.2369H52.426V83.7103H57.958V85.2369H56.1107Z" fill="#1266A5"></path><path d="M62.4264 90.3064V83.7098H64.2355V90.3064H62.4264Z" fill="#1266A5"></path><path d="M74.5366 88.3654C74.5366 89.5148 73.6415 90.41 71.9736 90.41C70.7112 90.41 69.4388 89.9109 68.7504 89.4683L69.5424 88.1865C70.1169 88.5166 71.2291 88.921 71.8888 88.921C72.2938 88.921 72.6234 88.7892 72.6234 88.4973C72.6234 87.9976 71.6618 88.0076 70.4941 87.5456C69.7873 87.2908 68.8921 86.7729 68.8921 85.623C68.8921 84.5018 69.7501 83.6067 71.4175 83.6067C72.4633 83.6067 73.5944 83.9457 74.3483 84.3328L73.5473 85.6329C73.0288 85.3975 72.1054 85.0956 71.5399 85.0956C71.1439 85.0956 70.8053 85.2185 70.8053 85.5105C70.8053 86.019 71.7758 85.9912 72.897 86.4339C73.5661 86.6976 74.5366 87.1689 74.5366 88.3654Z" fill="#1266A5"></path><path d="M79.0719 90.3064V83.7098H80.881V88.7798H83.906V90.3064H79.0719Z" fill="#1266A5"></path><path d="M92.5025 89.2041H90.2404L89.9108 90.3069H87.941L90.3722 83.7103H92.3697L94.8008 90.3069H92.8311L92.5025 89.2041ZM90.6552 87.8004H92.0782L91.362 85.4069L90.6552 87.8004Z" fill="#1266A5"></path><path d="M101.409 88.1865L102.738 83.7103H104.839L102.418 90.3069H100.41L97.979 83.7103H100.09L101.409 88.1865Z" fill="#1266A5"></path><path d="M112.588 89.2041H110.326L109.996 90.3069H108.026L110.458 83.7103H112.455L114.886 90.3069H112.916L112.588 89.2041ZM110.741 87.8004H112.164L111.447 85.4069L110.741 87.8004Z" fill="#1266A5"></path><path d="M15.6289 48.3247H13.7271L13.4292 47.5604H12.3106V50.5992H14.4171L14.8458 49.033H17.2507V53.023H7.4259V50.8793L8.43257 50.5809V42.471L7.4259 42.1726V40.0284H17.0455V43.7567H14.6034L14.3051 42.4517H12.3106V45.211H13.4292L13.7271 44.4655H15.6289V48.3247Z" fill="#CD143C"></path><path d="M21.783 47.9891C21.783 50.0585 22.0625 50.6919 23.144 50.6919C23.6288 50.6919 24.2999 50.5804 24.8407 50.2632L25.6421 52.1838C25.0082 52.7801 23.9272 53.2653 22.585 53.2653C19.5089 53.2653 18.0547 51.6242 18.0547 48.064C18.0547 44.5775 19.7136 43.0118 22.6221 43.0118C23.9648 43.0118 24.6915 43.2913 25.4558 43.6641V46.4794H23.2744L22.9949 45.3047C22.9205 45.2303 22.7713 45.1743 22.6405 45.1743C22.0437 45.1743 21.783 45.6031 21.783 47.9891Z" fill="#CD143C"></path><path d="M30.4906 43.0112C33.4363 43.0112 34.9649 44.5775 34.9649 48.1383C34.9649 51.699 33.4363 53.2653 30.4906 53.2653C27.5449 53.2653 26.0164 51.699 26.0164 48.1383C26.0164 44.5775 27.5449 43.0112 30.4906 43.0112ZM30.4906 51.1028C31.0874 51.1028 31.1806 50.6368 31.1806 48.1388C31.1806 45.6407 31.0874 45.1748 30.4906 45.1748C29.8938 45.1748 29.8007 45.6407 29.8007 48.1388C29.8012 50.6364 29.8938 51.1028 30.4906 51.1028Z" fill="#CD143C"></path><path d="M40.7833 53.0229H35.5636V50.8416L36.3467 50.674V41.8371L35.5636 41.5763V39.3201H40.0007V50.6735L40.7838 50.8411V53.0229H40.7833Z" fill="#CD143C"></path><path d="M46.5825 50.5992C47.3845 50.5992 48.3163 50.3756 49.0062 50.1139L49.8265 52.221C49.0622 52.7245 47.8504 53.2648 46.1726 53.2648C42.7982 53.2648 41.3068 51.7362 41.3068 48.0818C41.3068 44.4095 43.2641 43.0112 45.7622 43.0112C48.745 43.0112 49.9757 44.4843 49.9757 48.5853V49.2758H45.0911C45.1843 50.3573 45.5386 50.5992 46.5825 50.5992ZM46.5825 47.2248C46.5825 46.0317 46.5637 45.1743 45.8742 45.1743C45.2219 45.1743 45.0911 45.6218 45.0539 47.2248H46.5825Z" fill="#CD143C"></path><path d="M60.4175 50.8788V53.0225H54.1912V50.8788L55.1978 50.5804V42.471L54.1912 42.1726V40.0284H63.8108V43.8876H61.3687L61.0703 42.4522H59.0758V45.603H60.1945L60.4929 44.8943H62.3947V48.7534H60.4929L60.1945 48.0263H59.0758V50.5987L60.4175 50.8788Z" fill="#CD143C"></path><path d="M68.5478 44.5032C69.0513 43.7949 69.89 43.1049 70.7851 43.1049C71.139 43.1049 71.5306 43.1798 71.7546 43.2541L71.4751 46.6285C71.0835 46.4421 70.5056 46.349 70.0957 46.349C69.5738 46.349 69.2005 46.461 68.9026 46.5542V50.674L70.0213 50.8416V53.0229H64.4661V50.8416L65.2487 50.674V45.8826L64.4661 45.6218V43.2541H68.2875L68.5478 44.5032Z" fill="#CD143C"></path><path d="M74.795 53.2653C72.6697 53.2653 71.998 51.8859 71.998 50.0396C71.998 47.7656 73.5083 46.9453 76.0807 46.9453H76.6403V46.6657C76.6403 46.0506 76.3791 45.8082 75.82 45.8082C74.7385 45.8082 73.7878 46.125 73.1539 46.4234L72.1661 44.298C73.2288 43.5337 74.8134 43.0118 76.4351 43.0118C79.1196 43.0118 80.2571 43.9069 80.2571 46.405V50.2082C80.2571 50.7672 80.3315 50.8604 81.0397 50.8604L81.1518 52.7806C80.5555 53.079 79.8655 53.2658 79.0269 53.2658C78.1129 53.2658 77.3303 52.8931 77.0696 52.0723C76.6032 52.7434 75.9137 53.2653 74.795 53.2653ZM76.6408 48.6791H76.4728C75.7085 48.6791 75.5405 49.0146 75.5405 49.8538C75.5405 50.6552 75.6897 50.8971 76.1556 50.8971C76.3419 50.8971 76.4916 50.8599 76.6408 50.7479V48.6791Z" fill="#CD143C"></path><path d="M87.4361 53.0229V46.4788C87.4361 45.9941 87.1937 45.7889 86.821 45.7889C86.4666 45.7889 86.2247 45.9009 86.0007 46.0124V50.673L86.7838 50.8406V53.0219H81.5641V50.8406L82.3467 50.673V45.8825L81.5641 45.6218V43.2541H85.3856L85.6468 44.2791C86.4111 43.6268 87.1754 43.0112 88.4804 43.0112C90.1027 43.0112 91.1093 43.8132 91.1093 45.8637V50.6735L91.892 50.8411V53.0224H87.4361V53.0229Z" fill="#CD143C"></path><path d="M94.3361 56.9748L94.8208 55.5954C95.0815 55.7446 95.3987 55.8749 95.7531 55.8749C96.3311 55.8749 96.5546 55.7441 96.5546 55.409C96.5546 55.0734 96.2567 54.9614 95.7903 54.9614C95.5291 54.9614 95.2867 54.9991 95.138 55.0358L95.6788 53.1528C93.4597 52.7434 92.4159 51.1023 92.4159 48.0634C92.4159 44.577 94.0753 43.0112 96.9838 43.0112C98.3261 43.0112 99.0532 43.2908 99.8175 43.6635V46.4788H97.6366L97.3571 45.3041C97.2827 45.2298 97.1335 45.1738 97.0027 45.1738C96.4064 45.1738 96.1452 45.6025 96.1452 47.9891C96.1452 50.0584 96.4247 50.6919 97.5063 50.6919C97.991 50.6919 98.6621 50.5803 99.2029 50.2631L100.004 52.1838C99.3709 52.7801 98.2894 53.2653 96.9472 53.2653H96.9283L96.8163 53.7124C97.935 53.8432 98.5313 54.4212 98.5313 55.5022C98.5313 56.7136 97.7486 57.3852 96.1452 57.3852C95.3616 57.3852 94.6716 57.1616 94.3361 56.9748Z" fill="#CD143C"></path><path d="M103.268 53.2653C101.142 53.2653 100.471 51.8859 100.471 50.0396C100.471 47.7656 101.981 46.9453 104.553 46.9453H105.113V46.6657C105.113 46.0506 104.852 45.8082 104.293 45.8082C103.211 45.8082 102.261 46.125 101.627 46.4234L100.639 44.298C101.701 43.5337 103.286 43.0118 104.908 43.0118C107.592 43.0118 108.73 43.9069 108.73 46.405V50.2082C108.73 50.7672 108.804 50.8604 109.512 50.8604L109.624 52.7806C109.028 53.079 108.338 53.2658 107.5 53.2658C106.586 53.2658 105.803 52.8931 105.542 52.0723C105.076 52.7434 104.386 53.2653 103.268 53.2653ZM105.113 48.6791H104.945C104.181 48.6791 104.013 49.0146 104.013 49.8538C104.013 50.6552 104.162 50.8971 104.628 50.8971C104.815 50.8971 104.964 50.8599 105.113 50.7479V48.6791Z" fill="#CD143C"></path><path d="M115.257 53.0229H110.037V50.8416L110.82 50.674V45.8826L110.037 45.6219V43.2541H114.474V50.674L115.257 50.8416V53.0229ZM110.522 40.7367C110.522 39.6185 111.435 38.7045 112.573 38.7045C113.71 38.7045 114.624 39.618 114.624 40.7367C114.624 41.8554 113.71 42.7689 112.573 42.7689C111.435 42.7694 110.522 41.8554 110.522 40.7367Z" fill="#CD143C"></path><path d="M115.687 52.5566V50.1328H117.905L118.24 51.0463C118.446 51.1395 118.651 51.1955 118.93 51.1955C119.471 51.1955 119.844 50.972 119.844 50.5809C119.844 50.0396 119.621 49.8721 118.428 49.6109C116.507 49.1827 115.556 48.1755 115.556 46.237C115.556 44.2048 117.011 43.0118 119.546 43.0118C120.889 43.0118 121.839 43.2913 122.604 43.6641V46.0318H120.423L120.143 45.2303C119.92 45.1371 119.733 45.1 119.472 45.1C118.931 45.1 118.652 45.3607 118.652 45.7151C118.652 46.1621 119.007 46.3673 120.087 46.5725C122.269 46.9829 123.033 48.1205 123.033 49.9469C123.033 52.2027 121.336 53.2653 119.062 53.2653C117.439 53.2653 116.563 53.0041 115.687 52.5566Z" fill="#CD143C"></path><path d="M128.962 50.5992C129.763 50.5992 130.696 50.3756 131.386 50.1139L132.206 52.221C131.442 52.7245 130.23 53.2648 128.552 53.2648C125.178 53.2648 123.686 51.7362 123.686 48.0818C123.686 44.4095 125.643 43.0112 128.142 43.0112C131.124 43.0112 132.355 44.4843 132.355 48.5853V49.2758H127.471C127.564 50.3573 127.918 50.5992 128.962 50.5992ZM128.962 47.2248C128.962 46.0317 128.944 45.1743 128.254 45.1743C127.601 45.1743 127.47 45.6218 127.433 47.2248H128.962Z" fill="#CD143C"></path><path d="M11.006 73.255L12.0127 72.9566V64.8467L11.006 64.5488V62.4052H16.8968V64.5488L15.8901 64.8467V72.9566L16.8968 73.255V75.3987H11.006V73.255Z" fill="#CD143C"></path><path d="M23.4231 75.3986V68.855C23.4231 68.3698 23.1808 68.1651 22.808 68.1651C22.4541 68.1651 22.2113 68.2771 21.9877 68.3886V73.0493L22.7704 73.2168V75.3982H17.5511V73.2168L18.3343 73.0493V68.2583L17.5511 67.9971V65.6298H21.3726L21.6333 66.6548C22.3976 66.0026 23.1619 65.387 24.467 65.387C26.0888 65.387 27.0959 66.1884 27.0959 68.2394V73.0493L27.8791 73.2168V75.3982H23.4231V75.3986Z" fill="#CD143C"></path><path d="M28.1234 67.9788V65.6299H28.9625V63.4673L32.6165 62.8894V65.6299H34.2011V67.9788H32.6165V72.341C32.6165 72.8634 32.7657 73.0121 33.1573 73.0121C33.4368 73.0121 33.7352 72.9749 33.9215 72.9001L34.3131 75.1558C33.9027 75.3427 33.0829 75.641 31.8339 75.641C30.1189 75.641 28.9625 75.0254 28.9625 72.7697V67.9788H28.1234Z" fill="#CD143C"></path><path d="M39.963 72.9749C40.7649 72.9749 41.6968 72.7514 42.3867 72.4897L43.207 74.5967C42.4427 75.1003 41.2309 75.6411 39.5531 75.6411C36.1787 75.6411 34.6873 74.1125 34.6873 70.458C34.6873 66.7857 36.6446 65.3875 39.1427 65.3875C42.1255 65.3875 43.3562 66.8606 43.3562 70.9616V71.6521H38.4716C38.5647 72.7331 38.9191 72.9749 39.963 72.9749ZM39.963 69.6006C39.963 68.408 39.9441 67.55 39.2547 67.55C38.6024 67.55 38.4716 67.9971 38.4344 69.6006H39.963Z" fill="#CD143C"></path><path d="M48.0927 66.8794C48.5963 66.1707 49.4354 65.4807 50.3301 65.4807C50.6845 65.4807 51.0755 65.5556 51.2996 65.6304L51.02 69.0048C50.6285 68.8184 50.0505 68.7253 49.6406 68.7253C49.1187 68.7253 48.7455 68.8378 48.4476 68.9305V73.0503L49.5663 73.2178V75.3992H44.01V73.2178L44.7931 73.0503V68.2593L44.01 67.9981V65.6309H47.832L48.0927 66.8794Z" fill="#CD143C"></path><path d="M57.5463 75.3986V68.855C57.5463 68.3698 57.3039 68.1651 56.9312 68.1651C56.5773 68.1651 56.3344 68.2771 56.1109 68.3886V73.0493L56.894 73.2168V75.3982H51.6743V73.2168L52.4574 73.0493V68.2583L51.6743 67.9971V65.6298H55.4963L55.757 66.6548C56.5218 66.0026 57.2861 65.387 58.5907 65.387C60.2124 65.387 61.2196 66.1884 61.2196 68.2394V73.0493L62.0027 73.2168V75.3982H57.5463V75.3986Z" fill="#CD143C"></path><path d="M65.3226 75.6411C63.1972 75.6411 62.5261 74.2617 62.5261 72.4154C62.5261 70.1413 64.0359 69.321 66.6088 69.321H67.1679V69.0415C67.1679 68.4264 66.9072 68.1845 66.3481 68.1845C65.2666 68.1845 64.3159 68.5012 63.682 68.7991L62.6937 66.6742C63.7563 65.9094 65.3409 65.3875 66.9632 65.3875C69.6477 65.3875 70.7847 66.2827 70.7847 68.7808V72.5839C70.7847 73.143 70.859 73.2362 71.5678 73.2362L71.6798 75.1563C71.0831 75.4547 70.3936 75.6416 69.5545 75.6416C68.641 75.6416 67.8579 75.2688 67.5971 74.448C67.1307 75.1197 66.4413 75.6411 65.3226 75.6411ZM67.1684 71.0548H67.0009C66.2361 71.0548 66.0686 71.3904 66.0686 72.2295C66.0686 73.031 66.2177 73.2729 66.6837 73.2729C66.87 73.2729 67.0192 73.2357 67.1684 73.1237V71.0548Z" fill="#CD143C"></path><path d="M71.8682 67.9788V65.6299H72.7068V63.4673L76.3608 62.8894V65.6299H77.9454V67.9788H76.3608V72.341C76.3608 72.8634 76.5104 73.0121 76.9015 73.0121C77.1811 73.0121 77.4794 72.9749 77.6663 72.9001L78.0574 75.1558C77.6475 75.3427 76.8272 75.641 75.5781 75.641C73.8627 75.641 72.7068 75.0254 72.7068 72.7697V67.9788H71.8682Z" fill="#CD143C"></path><path d="M83.7821 75.3987H78.5624V73.2173L79.345 73.0498V68.2588L78.5624 67.9976V65.6303H82.999V73.0503L83.7821 73.2178V75.3987ZM79.0466 63.1129C79.0466 61.9942 79.9601 61.0807 81.0976 61.0807C82.2347 61.0807 83.1486 61.9942 83.1486 63.1129C83.1486 64.2316 82.2347 65.1456 81.0976 65.1456C79.9601 65.1456 79.0466 64.2316 79.0466 63.1129Z" fill="#CD143C"></path><path d="M88.7793 65.3875C91.725 65.3875 93.2536 66.9538 93.2536 70.5145C93.2536 74.0753 91.725 75.6416 88.7793 75.6416C85.8341 75.6416 84.3051 74.0753 84.3051 70.5145C84.3046 66.9538 85.8336 65.3875 88.7793 65.3875ZM88.7793 73.4786C89.3761 73.4786 89.4693 73.0126 89.4693 70.5145C89.4693 68.0165 89.3761 67.5505 88.7793 67.5505C88.183 67.5505 88.0894 68.017 88.0894 70.5145C88.0894 73.0126 88.183 73.4786 88.7793 73.4786Z" fill="#CD143C"></path><path d="M99.8175 75.3986V68.855C99.8175 68.3698 99.5752 68.1651 99.2024 68.1651C98.848 68.1651 98.6062 68.2771 98.3821 68.3886V73.0493L99.1653 73.2168V75.3982H93.9456V73.2168L94.7282 73.0493V68.2583L93.9456 67.9971V65.6298H97.767L98.0282 66.6548C98.7925 66.0026 99.5568 65.387 100.862 65.387C102.484 65.387 103.491 66.1884 103.491 68.2394V73.0493L104.273 73.2168V75.3982H99.8175V75.3986Z" fill="#CD143C"></path><path d="M107.594 75.6411C105.469 75.6411 104.797 74.2617 104.797 72.4154C104.797 70.1413 106.308 69.321 108.88 69.321H109.44V69.0415C109.44 68.4264 109.178 68.1845 108.619 68.1845C107.538 68.1845 106.587 68.5012 105.953 68.7991L104.965 66.6742C106.028 65.9094 107.613 65.3875 109.234 65.3875C111.919 65.3875 113.056 66.2827 113.056 68.7808V72.5839C113.056 73.143 113.131 73.2362 113.839 73.2362L113.951 75.1563C113.355 75.4547 112.665 75.6416 111.826 75.6416C110.912 75.6416 110.13 75.2688 109.869 74.448C109.402 75.1197 108.713 75.6411 107.594 75.6411ZM109.44 71.0548H109.272C108.507 71.0548 108.339 71.3904 108.339 72.2295C108.339 73.031 108.488 73.2729 108.954 73.2729C109.141 73.2729 109.29 73.2357 109.44 73.1237V71.0548Z" fill="#CD143C"></path><path d="M119.583 75.3987H114.363V73.2173L115.146 73.0498V64.2133L114.363 63.9521V61.6964H118.8V73.0498L119.583 73.2173V75.3987Z" fill="#CD143C"></path><path d="M125.382 72.9749C126.183 72.9749 127.116 72.7514 127.806 72.4897L128.626 74.5967C127.862 75.1003 126.65 75.6411 124.972 75.6411C121.597 75.6411 120.106 74.1125 120.106 70.458C120.106 66.7857 122.063 65.3875 124.562 65.3875C127.545 65.3875 128.775 66.8606 128.775 70.9616V71.6521H123.891C123.984 72.7331 124.338 72.9749 125.382 72.9749ZM125.382 69.6006C125.382 68.408 125.363 67.55 124.674 67.55C124.021 67.55 123.89 67.9971 123.853 69.6006H125.382Z" fill="#CD143C"></path><path d="M104.204 6.383L79.0421 30.5917" stroke="#1266A5" stroke-width="0.75" stroke-miterlimit="10"></path><path d="M104.204 6.383L56.8251 30.5917" stroke="#1266A5" stroke-width="0.75" stroke-miterlimit="10"></path><path d="M104.946 5.93793L19.545 31.4838" stroke="#1266A5" stroke-width="0.75" stroke-miterlimit="10"></path><path d="M124.697 31.676L107.207 5.8761L106.909 6.07829L124.399 31.8782L124.697 31.676Z" fill="#1266A5"></path><path d="M105.392 3.26439L93.9752 34.1098H96.681L106.432 2.6701L105.392 3.26439Z" fill="#1266A5"></path><path d="M70.9611 31.1875C95.6753 31.1875 118.169 32.1153 135.007 33.6345L135.552 31.7892C117.283 30.5317 95.0066 29.7912 70.9616 29.7912C44.0452 29.7917 19.3438 30.7196 0 32.2625L0.5928 34.2625C17.8911 32.3745 43.0063 31.1875 70.9611 31.1875Z" fill="#1266A5"></path><path d="M106.441 0.442627C103.764 0.442627 101.456 0.879297 100.373 1.51175V3.13402C101.456 3.76697 103.764 4.20463 106.441 4.20463C109.119 4.20463 111.426 3.76697 112.51 3.13303V1.51324C111.425 0.879792 109.119 0.442627 106.441 0.442627Z" fill="#1266A5"></path><path d="M105.47 3.96672L104.578 6.97484H106.667V3.38086" fill="#1266A5"></path><path d="M109.602 0H103.497V1.46366H109.602V0Z" fill="#1266A5"></path><path d="M107.917 2.37271L107.028 2.07532L99.9235 34.1098H103.614L107.917 2.37271Z" fill="#1266A5"></path></g><defs><clipPath id="clip0_160_3063"><rect width="135.552" height="90.41" fill="white"></rect></clipPath></defs></svg>